<svg role="img" aria-label="Solta" xmlns="http://www.w3.org/2000/svg" viewBox="-160.0 -800.0 2436.0 1005.8"><defs><clipPath id="c"><rect x="-40.0" y="-264.0" width="2196.0" height="349.8"/></clipPath></defs><rect x="-160.0" y="-800.0" width="2436.0" height="1005.8" fill="none"/><title>Solta</title><rect x="-40.0" y="-264.0" width="2196.0" height="349.8" fill="#C3CDEB"/><path fill="#111318" d="M296.83306884765625 13.83331298828125Q229.16668701171875 13.83331298828125 177.5001220703125 -1.749969482421875Q125.83355712890625 -17.333251953125 91.000244140625 -46.83319091796875Q56.16693115234375 -76.3331298828125 39.583587646484375 -118.66644287109375Q23.000244140625 -160.999755859375 25.3336181640625 -213.83319091796875L159.83172607421875 -242.666015625Q160.33154296875 -192.9989013671875 179.33172607421875 -162.91537475585938Q198.3319091796875 -132.83184814453125 231.08224487304688 -118.99847412109375Q263.83258056640625 -105.16510009765625 303.3328857421875 -105.16510009765625Q338.16680908203125 -105.16510009765625 364.3338623046875 -113.99859619140625Q390.50091552734375 -122.83209228515625 405.5010986328125 -138.91574096679688Q420.50128173828125 -154.9993896484375 420.50128173828125 -176.83319091796875Q420.50128173828125 -204.6669921875 400.7510681152344 -221.75051879882812Q381.0008544921875 -238.83404541015625 347.4172668457031 -250.25076293945312Q313.83367919921875 -261.66748046875 272.6668701171875 -272.3341064453125Q229.6668701171875 -283.83404541015625 187.25021362304688 -297.9173278808594Q144.83355712890625 -312.0006103515625 109.91690063476562 -333.5838928222656Q75.000244140625 -355.16717529296875 53.66693115234375 -389.6671142578125Q32.3336181640625 -424.16705322265625 32.3336181640625 -475.50030517578125Q32.3336181640625 -537.666748046875 63.916839599609375 -582.0833435058594Q95.50006103515625 -626.4999389648438 151.99993896484375 -650.1666259765625Q208.49981689453125 -673.8333129882812 282.3331298828125 -673.8333129882812Q358.83294677734375 -673.8333129882812 418.2494201660156 -648.0834045410156Q477.6658935546875 -622.33349609375 509.9158020019531 -572.4169616699219Q542.1657104492188 -522.5004272460938 535.8324584960938 -449.50054931640625L403.16766357421875 -427.66748046875Q404.83441162109375 -459.16766357421875 397.0009765625 -483.2511291503906Q389.16754150390625 -507.3345947265625 373.00067138671875 -524.0013427734375Q356.83380126953125 -540.6680908203125 332.83355712890625 -549.4181213378906Q308.83331298828125 -558.1681518554688 277.3331298828125 -558.1681518554688Q243.16607666015625 -558.1681518554688 219.8323974609375 -548.8346557617188Q196.49871826171875 -539.5011596679688 184.24850463867188 -523.0841979980469Q171.998291015625 -506.667236328125 171.998291015625 -485.16680908203125Q171.998291015625 -459.83294677734375 190.08187866210938 -443.9160461425781Q208.16546630859375 -427.9991455078125 240.58242797851562 -417.165771484375Q272.9993896484375 -406.3323974609375 314.99951171875 -395.49908447265625Q358.16619873046875 -383.9991455078125 401.33282470703125 -369.9158630371094Q444.49945068359375 -355.83258056640625 481.0827331542969 -332.99932861328125Q517.666015625 -310.16607666015625 539.7492980957031 -273.99951171875Q561.8325805664062 -237.83294677734375 561.8325805664062 -182.3331298828125Q561.8325805664062 -117.6666259765625 528.166015625 -74.0Q494.49945068359375 -30.3333740234375 434.9162292480469 -8.250030517578125Q375.3330078125 13.83331298828125 296.83306884765625 13.83331298828125Z M827.6666259765625 13.83331298828125Q753.0001220703125 13.83331298828125 694.6668701171875 -16.583343505859375Q636.3336181640625 -47.0 603.4169616699219 -108.24996948242188Q570.5003051757812 -169.49993896484375 570.5003051757812 -261.83319091796875Q570.5003051757812 -357.16632080078125 604.5835876464844 -418.33294677734375Q638.6668701171875 -479.49957275390625 697.166748046875 -509.2496032714844Q755.6666259765625 -538.9996337890625 829.1664428710938 -538.9996337890625Q905.3328857421875 -538.9996337890625 963.1661376953125 -508.4162902832031Q1020.9993896484375 -477.83294677734375 1053.4993896484375 -416.4996337890625Q1085.9993896484375 -355.16632080078125 1085.9993896484375 -261.999755859375Q1085.9993896484375 -166.49993896484375 1052.0827941894531 -105.41665649414062Q1018.1661987304688 -44.3333740234375 959.6663208007812 -15.250030517578125Q901.1664428710938 13.83331298828125 827.6666259765625 13.83331298828125ZM830.8331909179688 -94.33203125Q865.8336791992188 -94.33203125 890.000732421875 -112.99884033203125Q914.1677856445312 -131.6656494140625 927.0013427734375 -167.74923706054688Q939.8348999023438 -203.83282470703125 939.8348999023438 -254.16656494140625Q939.8348999023438 -308.6668701171875 926.0846862792969 -346.4171447753906Q912.33447265625 -384.16741943359375 886.7507629394531 -404.5842590332031Q861.1670532226562 -425.0010986328125 825.1665649414062 -425.0010986328125Q790.9993896484375 -425.0010986328125 766.7489929199219 -406.00091552734375Q742.4985961914062 -387.000732421875 729.5816955566406 -350.6671142578125Q716.664794921875 -314.33349609375 716.664794921875 -263.49981689453125Q716.664794921875 -183.666015625 746.9152526855469 -138.9990234375Q777.1657104492188 -94.33203125 830.8331909179688 -94.33203125Z M1103.6669921875 0.0V-694.9993896484375H1247.9981689453125V0.0Z M1513.9991455078125 11.333251953125Q1426.8331909179688 11.333251953125 1383.5001220703125 -34.083160400390625Q1340.1670532226562 -79.49957275390625 1340.1670532226562 -173.49884033203125V-411.33447265625H1280.5001831054688V-504.83343505859375H1289.334228515625Q1344.3333740234375 -511.49993896484375 1367.5830383300781 -540.9994506835938Q1390.8327026367188 -570.4989624023438 1395.999267578125 -629.9979248046875L1397.1660766601562 -643.4993286132812H1482.8316040039062V-524.9996337890625H1607.6654052734375V-408.001220703125H1482.8316040039062V-185.99853515625Q1482.8316040039062 -147.6651611328125 1501.2482604980469 -130.9984130859375Q1519.6649169921875 -114.3316650390625 1547.8317260742188 -114.3316650390625Q1562.6651611328125 -114.3316650390625 1578.5819396972656 -118.6650390625Q1594.4987182617188 -122.9984130859375 1607.6654052734375 -130.99853515625V-3.16680908203125Q1578.9990234375 5.49981689453125 1555.9158020019531 8.416534423828125Q1532.8325805664062 11.333251953125 1513.9991455078125 11.333251953125Z M1758.5000610351562 13.83331298828125Q1718.3333740234375 13.83331298828125 1682.7500915527344 -0.3333740234375Q1647.1668090820312 -14.50006103515625 1624.7502136230469 -45.916717529296875Q1602.3336181640625 -77.3333740234375 1602.3336181640625 -129.49993896484375Q1602.3336181640625 -177.49981689453125 1620.8335571289062 -207.58309936523438Q1639.33349609375 -237.6663818359375 1670.9167785644531 -256.0830383300781Q1702.5000610351562 -274.49969482421875 1740.8334350585938 -284.1663818359375Q1779.1668090820312 -293.83306884765625 1818.0003662109375 -300.83306884765625Q1871.1671752929688 -310.6663818359375 1897.5005493164062 -316.5830383300781Q1923.8339233398438 -322.49969482421875 1933.0838928222656 -330.7497253417969Q1942.3338623046875 -338.999755859375 1942.3338623046875 -353.66650390625Q1942.3338623046875 -387.6671142578125 1918.0835266113281 -405.50079345703125Q1893.8331909179688 -423.33447265625 1855.4994506835938 -423.33447265625Q1831.6658935546875 -423.33447265625 1807.9990234375 -414.50103759765625Q1784.3321533203125 -405.6676025390625 1768.9153137207031 -383.9174499511719Q1753.4984741210938 -362.16729736328125 1753.4983520507812 -323.00048828125L1624.33349609375 -333.50054931640625Q1623.8336791992188 -393.6668701171875 1644.5836486816406 -433.5833435058594Q1665.3336181640625 -473.49981689453125 1700.4167785644531 -496.4164123535156Q1735.4999389648438 -519.3330078125 1777.1663818359375 -529.1663208007812Q1818.8328247070312 -538.9996337890625 1860.1659545898438 -538.9996337890625Q1934.1653442382812 -538.9996337890625 1983.7485046386719 -511.33319091796875Q2033.3316650390625 -483.666748046875 2058.2483825683594 -430.7503967285156Q2083.1651000976562 -377.83404541015625 2083.1651000976562 -301.16766357421875V-206.16754150390625Q2083.331787109375 -172.000732421875 2083.4151306152344 -137.33392333984375Q2083.4984741210938 -102.6671142578125 2083.581817626953 -68.41696166992188Q2083.6651611328125 -34.16680908203125 2083.6651611328125 0.0H1957.33349609375Q1958.1669311523438 -38.3336181640625 1958.8336791992188 -76.91714477539062Q1959.5004272460938 -115.50067138671875 1960.1671752929688 -158.16754150390625H1953.6671142578125Q1948.8336791992188 -110.83392333984375 1922.9169616699219 -71.75039672851562Q1897.000244140625 -32.6668701171875 1855.0835266113281 -9.416778564453125Q1813.1668090820312 13.83331298828125 1758.5000610351562 13.83331298828125ZM1814.998779296875 -93.49871826171875Q1835.4992065429688 -93.49871826171875 1857.5828552246094 -101.58224487304688Q1879.66650390625 -109.665771484375 1898.8333740234375 -127.16607666015625Q1918.000244140625 -144.6663818359375 1930.0003662109375 -173.41665649414062Q1942.00048828125 -202.16693115234375 1942.3338623046875 -242.6671142578125L1942.5005493164062 -266.333740234375L1969.3338623046875 -270.667236328125Q1960.5004272460938 -257.00048828125 1940.4169006347656 -248.91714477539062Q1920.3333740234375 -240.83380126953125 1895.0830993652344 -236.25045776367188Q1869.8328247070312 -231.6671142578125 1844.0825500488281 -226.91708374023438Q1818.332275390625 -222.16705322265625 1796.33203125 -213.8336181640625Q1774.331787109375 -205.50018310546875 1760.6649780273438 -191.33331298828125Q1746.9981689453125 -177.16644287109375 1746.9981689453125 -152.332763671875Q1746.9981689453125 -124.16583251953125 1766.2482604980469 -108.832275390625Q1785.4983520507812 -93.49871826171875 1814.998779296875 -93.49871826171875Z"/></svg>
